<svg width="20" height="20" viewBox="0 0 20 20" fill="none" xmlns="http://www.w3.org/2000/svg">
<path d="M12.025 15.6833C12.1833 15.6833 12.3417 15.625 12.4667 15.5L17.525 10.4416C17.7667 10.2 17.7667 9.79998 17.525 9.55831L12.4667 4.49998C12.225 4.25831 11.825 4.25831 11.5833 4.49998C11.3417 4.74164 11.3417 5.14164 11.5833 5.38331L16.2 9.99998L11.5833 14.6166C11.3417 14.8583 11.3417 15.2583 11.5833 15.5C11.7 15.625 11.8667 15.6833 12.025 15.6833Z" fill="#71AB65"/>
<path d="M2.91665 10.625H16.9417C17.2833 10.625 17.5667 10.3417 17.5667 10C17.5667 9.65833 17.2833 9.375 16.9417 9.375H2.91665C2.57498 9.375 2.29165 9.65833 2.29165 10C2.29165 10.3417 2.57498 10.625 2.91665 10.625Z" fill="#71AB65"/>
</svg>
