<svg width="58" height="58" viewBox="0 0 58 58" fill="none" xmlns="http://www.w3.org/2000/svg">
<path d="M29.2019 0C13.0741 0 0 12.9837 0 29C0 45.0163 13.0741 58 29.2019 58C43.6714 58 55.6829 47.5489 58 33.8333H57.7904C55.6293 42.1719 48.0071 48.3333 38.9358 48.3333C28.184 48.3333 19.4679 39.6775 19.4679 29C19.4679 18.3225 28.184 9.66667 38.9358 9.66667C48.0071 9.66667 55.6293 15.8281 57.7904 24.1667H58C55.6829 10.4511 43.6714 0 29.2019 0Z" fill="#66875F"/>
<path d="M0 29C0 12.9837 13.0741 0 29.2019 0C43.6714 0 55.6829 10.4511 58 24.1667H38.3225C36.1614 15.8281 28.5392 9.66667 19.4679 9.66667C8.71608 9.66667 0 18.3225 0 29Z" fill="#71AB65"/>
<path d="M0 29C0 45.0163 13.0741 58 29.2019 58C43.6714 58 55.6829 47.5489 58 33.8333H38.3225C36.1614 42.1719 28.5392 48.3333 19.4679 48.3333C8.71608 48.3333 0 39.6775 0 29Z" fill="#71AB65"/>
</svg>
