<svg width="28" height="28" viewBox="0 0 28 28" fill="none" xmlns="http://www.w3.org/2000/svg">
<path fill-rule="evenodd" clip-rule="evenodd" d="M4.86683 3.70018C3.5 5.06701 3.5 7.2669 3.5 11.6667V16.3333C3.5 20.7331 3.5 22.933 4.86683 24.2998C6.23367 25.6667 8.43356 25.6667 12.8333 25.6667H15.1667C19.5664 25.6667 21.7663 25.6667 23.1332 24.2998C24.5 22.933 24.5 20.7331 24.5 16.3333V11.6667C24.5 7.2669 24.5 5.06701 23.1332 3.70018C21.7663 2.33334 19.5664 2.33334 15.1667 2.33334H12.8333C8.43356 2.33334 6.23367 2.33334 4.86683 3.70018ZM14.875 7.00001C14.875 6.51676 14.4832 6.12501 14 6.12501C13.5167 6.12501 13.125 6.51676 13.125 7.00001V8.45834H11.6666C11.1834 8.45834 10.7916 8.8501 10.7916 9.33334C10.7916 9.81659 11.1834 10.2083 11.6666 10.2083H13.125L13.125 11.6667C13.125 12.1499 13.5167 12.5417 14 12.5417C14.4832 12.5417 14.875 12.1499 14.875 11.6667L14.875 10.2083L16.3333 10.2083C16.8165 10.2083 17.2083 9.81659 17.2083 9.33334C17.2083 8.8501 16.8165 8.45834 16.3333 8.45834H14.875V7.00001ZM9.33333 15.4583C8.85008 15.4583 8.45833 15.8501 8.45833 16.3333C8.45833 16.8166 8.85008 17.2083 9.33333 17.2083H18.6667C19.1499 17.2083 19.5417 16.8166 19.5417 16.3333C19.5417 15.8501 19.1499 15.4583 18.6667 15.4583H9.33333ZM10.5 20.125C10.0168 20.125 9.625 20.5168 9.625 21C9.625 21.4833 10.0168 21.875 10.5 21.875H17.5C17.9832 21.875 18.375 21.4833 18.375 21C18.375 20.5168 17.9832 20.125 17.5 20.125H10.5Z" fill="#71AB65"/>
</svg>
