<svg width="24" height="24" viewBox="0 0 24 24" fill="none" xmlns="http://www.w3.org/2000/svg">
<g opacity="0.3">
<path d="M15.4041 6.04662V4.19313C15.4041 3.29673 14.6774 2.57001 13.781 2.57001H1.62312C0.726728 2.57001 0 3.29673 0 4.19313V10.4228C0 11.3193 0.726728 12.0459 1.62312 12.0459H2.8177V8.88514C2.8177 7.32003 4.09111 6.04662 5.65622 6.04662H15.4041Z" fill="black"/>
<path d="M19.4372 10.7387V8.88521C19.4372 7.98873 18.7105 7.26208 17.8141 7.26208H5.65631C4.75991 7.26208 4.03318 7.98881 4.03318 8.88521V15.1148C4.03318 16.0112 4.75991 16.7379 5.65631 16.7379H7.38047V13.5772C7.38047 12.012 8.65388 10.7387 10.219 10.7387H19.4372Z" fill="black"/>
<path d="M22.3769 11.9541H10.219C9.3226 11.9541 8.59587 12.6808 8.59587 13.5772V19.8069C8.59587 20.7033 9.3226 21.43 10.219 21.43H22.3769C23.2734 21.43 24 20.7033 24 19.8069V13.5772C24 12.6807 23.2733 11.9541 22.3769 11.9541Z" fill="black"/>
</g>
</svg>
