<svg width="24" height="24" viewBox="0 0 24 24" fill="none" xmlns="http://www.w3.org/2000/svg">
<g opacity="0.3">
<path d="M16.5 15.87C16.5464 16.4424 16.5464 17.0176 16.5 17.59C16.8336 17.7079 17.1148 17.94 17.2938 18.2452C17.4729 18.5504 17.5382 18.9091 17.4784 19.2579C17.4186 19.6066 17.2374 19.923 16.9668 20.1511C16.6963 20.3791 16.3538 20.5042 16 20.5042C15.6462 20.5042 15.3037 20.3791 15.0332 20.1511C14.7626 19.923 14.5814 19.6066 14.5216 19.2579C14.4618 18.9091 14.5271 18.5504 14.7062 18.2452C14.8852 17.94 15.1664 17.7079 15.5 17.59C15.5 15.88 15.445 15.815 15.67 15.625C15.4851 15.5849 15.2982 15.5548 15.11 15.535C15.7886 15.0739 16.3554 14.4668 16.7689 13.7583C17.1825 13.0497 17.4323 12.2576 17.5 11.44C17.9299 11.329 18.3106 11.0781 18.5822 10.7269C18.8538 10.3756 19.0008 9.94399 19 9.5C19 8.825 19.05 7.875 18 7.27V6.67C17.9987 5.43185 17.5062 4.24478 16.6307 3.36927C15.7552 2.49377 14.5682 2.00132 13.33 2H10.67C9.43185 2.00132 8.24478 2.49377 7.36927 3.36927C6.49377 4.24478 6.00132 5.43185 6 6.67V7.27C5 7.85 5 8.77 5 9.5C4.99922 9.94399 5.1462 10.3756 5.41779 10.7269C5.68937 11.0781 6.07011 11.329 6.5 11.44C6.56543 12.2559 6.81215 13.0469 7.22216 13.7554C7.63217 14.4638 8.19514 15.0718 8.87 15.535C8.61 15.56 8.72 15.535 9.05 15.655C9.285 15.81 9.55 15.92 9.55 15.945C9.84051 16.1486 10.0782 16.4186 10.2435 16.7325C10.4087 17.0464 10.4966 17.3953 10.5 17.75V20C10.5 20.1326 10.4473 20.2598 10.3536 20.3536C10.2598 20.4473 10.1326 20.5 10 20.5H9.5C9.36739 20.5 9.24021 20.4473 9.14645 20.3536C9.05268 20.2598 9 20.1326 9 20C9 19.8674 9.05268 19.7402 9.14645 19.6464C9.24021 19.5527 9.36739 19.5 9.5 19.5V17.75C9.5 17.4185 9.3683 17.1005 9.13388 16.8661C8.89946 16.6317 8.58152 16.5 8.25 16.5C7.91848 16.5 7.60054 16.6317 7.36612 16.8661C7.1317 17.1005 7 17.4185 7 17.75V19.5C7.13261 19.5 7.25979 19.5527 7.35355 19.6464C7.44732 19.7402 7.5 19.8674 7.5 20C7.5 20.1326 7.44732 20.2598 7.35355 20.3536C7.25979 20.4473 7.13261 20.5 7 20.5H6.5C6.36739 20.5 6.24021 20.4473 6.14645 20.3536C6.05268 20.2598 6 20.1326 6 20C6 17.6 5.895 17.18 6.42 16.445C5.675 16.9486 5.06483 17.6271 4.64293 18.4212C4.22104 19.2153 4.00028 20.1008 4 21V21.5C4 21.6326 4.05268 21.7598 4.14645 21.8536C4.24021 21.9473 4.36739 22 4.5 22H19.5C19.6326 22 19.7598 21.9473 19.8536 21.8536C19.9473 21.7598 20 21.6326 20 21.5V21C20.0013 19.8918 19.6679 18.8091 19.0433 17.8938C18.4188 16.9784 17.5323 16.273 16.5 15.87ZM11 4.5H11.5V4C11.5 3.86739 11.5527 3.74021 11.6464 3.64645C11.7402 3.55268 11.8674 3.5 12 3.5C12.1326 3.5 12.2598 3.55268 12.3536 3.64645C12.4473 3.74021 12.5 3.86739 12.5 4V4.5H13C13.1326 4.5 13.2598 4.55268 13.3536 4.64645C13.4473 4.74021 13.5 4.86739 13.5 5C13.5 5.13261 13.4473 5.25979 13.3536 5.35355C13.2598 5.44732 13.1326 5.5 13 5.5H12.5V6C12.5 6.13261 12.4473 6.25979 12.3536 6.35355C12.2598 6.44732 12.1326 6.5 12 6.5C11.8674 6.5 11.7402 6.44732 11.6464 6.35355C11.5527 6.25979 11.5 6.13261 11.5 6V5.5H11C10.8674 5.5 10.7402 5.44732 10.6464 5.35355C10.5527 5.25979 10.5 5.13261 10.5 5C10.5 4.86739 10.5527 4.74021 10.6464 4.64645C10.7402 4.55268 10.8674 4.5 11 4.5ZM18 9.5C17.9998 9.67536 17.9535 9.84759 17.8658 9.99942C17.778 10.1512 17.6519 10.2773 17.5 10.365V8.135C18.07 8.46 18 9 18 9.5ZM6 9.5C6 8.905 5.95 8.445 6.5 8.135V10.365C6.34813 10.2773 6.22199 10.1512 6.13423 9.99942C6.04647 9.84759 6.00018 9.67536 6 9.5ZM7.5 11V8H16.5V11C16.5 12.1935 16.0259 13.3381 15.182 14.182C14.3381 15.0259 13.1935 15.5 12 15.5C10.8065 15.5 9.66193 15.0259 8.81802 14.182C7.97411 13.3381 7.5 12.1935 7.5 11ZM13.19 16.5L12 18.88L10.81 16.5H13.19Z" fill="black"/>
<path d="M15.5 19C15.5 19.1326 15.5527 19.2598 15.6464 19.3536C15.7402 19.4473 15.8674 19.5 16 19.5C16.1326 19.5 16.2598 19.4473 16.3536 19.3536C16.4473 19.2598 16.5 19.1326 16.5 19C16.5 18.8674 16.4473 18.7402 16.3536 18.6464C16.2598 18.5527 16.1326 18.5 16 18.5C15.8674 18.5 15.7402 18.5527 15.6464 18.6464C15.5527 18.7402 15.5 18.8674 15.5 19Z" fill="black"/>
</g>
</svg>
