<svg width="20" height="20" viewBox="0 0 20 20" fill="none" xmlns="http://www.w3.org/2000/svg">
<path d="M5.83337 4.16669C5.83337 2.78335 6.95004 1.66669 8.33337 1.66669H11.6667C13.05 1.66669 14.1667 2.78335 14.1667 4.16669C14.1667 4.62502 13.7917 5.00002 13.3334 5.00002H6.66671C6.20837 5.00002 5.83337 4.62502 5.83337 4.16669Z" fill="#2382C3"/>
<path d="M14.7917 12.5C14.7917 12.8417 14.5084 13.125 14.1667 13.125H13.3334V15.8333C13.3334 17.2167 12.2167 18.3333 10.8334 18.3333H9.16671C7.78337 18.3333 6.66671 17.2167 6.66671 15.8333V13.125H5.83337C5.49171 13.125 5.20837 12.8417 5.20837 12.5C5.20837 12.1583 5.49171 11.875 5.83337 11.875H14.1667C14.5084 11.875 14.7917 12.1583 14.7917 12.5Z" fill="#2382C3"/>
<path d="M15 5.83331H5C3.33333 5.83331 2.5 6.66665 2.5 8.33331V12.5C2.5 14.1666 3.33333 15 5 15H5.3125C5.60015 15 5.83333 14.7668 5.83333 14.4791C5.83333 14.1915 5.59275 13.967 5.32368 13.8653C4.77182 13.6568 4.375 13.1211 4.375 12.5C4.375 11.7 5.03333 11.0416 5.83333 11.0416H14.1667C14.9667 11.0416 15.625 11.7 15.625 12.5C15.625 13.1211 15.2282 13.6568 14.6763 13.8653C14.4072 13.967 14.1667 14.1915 14.1667 14.4791C14.1667 14.7668 14.3999 15 14.6875 15H15C16.6667 15 17.5 14.1666 17.5 12.5V8.33331C17.5 6.66665 16.6667 5.83331 15 5.83331ZM8.33333 9.79165H5.83333C5.49167 9.79165 5.20833 9.50831 5.20833 9.16665C5.20833 8.82498 5.49167 8.54165 5.83333 8.54165H8.33333C8.675 8.54165 8.95833 8.82498 8.95833 9.16665C8.95833 9.50831 8.675 9.79165 8.33333 9.79165Z" fill="#2382C3"/>
</svg>
