<svg width="24" height="24" viewBox="0 0 24 24" fill="none" xmlns="http://www.w3.org/2000/svg">
<g opacity="0.4">
<path d="M20.1 6.94C20.1 7.48 19.81 7.97 19.35 8.22L17.61 9.16L16.13 9.95L13.06 11.61C12.73 11.79 12.37 11.88 12 11.88C11.63 11.88 11.27 11.79 10.94 11.61L4.64999 8.22C4.18999 7.97 3.89999 7.48 3.89999 6.94C3.89999 6.4 4.18999 5.91 4.64999 5.66L6.61999 4.6L8.18999 3.75L10.94 2.27C11.6 1.91 12.4 1.91 13.06 2.27L19.35 5.66C19.81 5.91 20.1 6.4 20.1 6.94Z" fill="black"/>
<path d="M9.9 12.79L4.05 9.87002C3.6 9.64002 3.08 9.67002 2.65 9.93002C2.22 10.19 1.97 10.65 1.97 11.15V16.68C1.97 17.64 2.5 18.5 3.36 18.93L9.21 21.85C9.41 21.95 9.63 22 9.85 22C10.11 22 10.37 21.93 10.6 21.78C11.03 21.52 11.28 21.06 11.28 20.56V15.03C11.29 14.08 10.76 13.22 9.9 12.79Z" fill="black"/>
<path d="M22.03 11.15V16.68C22.03 17.63 21.5 18.49 20.64 18.92L14.79 21.85C14.59 21.95 14.37 22 14.15 22C13.89 22 13.63 21.93 13.39 21.78C12.97 21.52 12.71 21.06 12.71 20.56V15.04C12.71 14.08 13.24 13.22 14.1 12.79L16.25 11.72L17.75 10.97L19.95 9.87C20.4 9.64 20.92 9.66 21.35 9.93C21.77 10.19 22.03 10.65 22.03 11.15Z" fill="black"/>
<path d="M17.61 9.16L16.13 9.95L6.62 4.6L8.18999 3.75L17.37 8.93C17.47 8.99 17.55 9.07 17.61 9.16Z" fill="black"/>
<path d="M17.75 10.97V13.24C17.75 13.65 17.41 13.99 17 13.99C16.59 13.99 16.25 13.65 16.25 13.24V11.72L17.75 10.97Z" fill="black"/>
</g>
</svg>