<svg width="20" height="20" viewBox="0 0 20 20" fill="none" xmlns="http://www.w3.org/2000/svg">
<path d="M16.4323 15.3255L11.1042 10.0003L16.4323 4.71426C16.6993 4.405 16.6849 3.9409 16.3991 3.6491C16.1134 3.35729 15.6527 3.33616 15.3417 3.60059L9.99802 8.8474L4.74776 3.56137C4.44394 3.25729 3.95324 3.25729 3.64942 3.56137C3.50195 3.70864 3.419 3.90909 3.419 4.11821C3.419 4.32733 3.50195 4.52779 3.64942 4.67505L8.89188 9.95323L3.56373 15.2314C3.41626 15.3787 3.33331 15.5791 3.33331 15.7882C3.33331 15.9974 3.41626 16.1978 3.56373 16.3451C3.71074 16.4919 3.90975 16.5737 4.1168 16.5725C4.32005 16.5737 4.51574 16.4949 4.66208 16.3529L9.99802 11.0591L15.3417 16.4392C15.4888 16.586 15.6878 16.6678 15.8948 16.6666C16.0992 16.6658 16.295 16.5841 16.4401 16.4392C16.5865 16.2909 16.6681 16.0898 16.6666 15.8807C16.6652 15.6716 16.5808 15.4717 16.4323 15.3255Z" fill="#C24B51"/>
</svg>
