<svg width="20" height="20" viewBox="0 0 20 20" fill="none" xmlns="http://www.w3.org/2000/svg">
<g opacity="0.3">
<path d="M16.4324 15.3256L11.1042 10.0003L16.4324 4.71429C16.6994 4.40503 16.6849 3.94093 16.3992 3.64913C16.1134 3.35732 15.6527 3.33619 15.3418 3.60062L9.99808 8.84743L4.74783 3.56141C4.444 3.25732 3.95331 3.25732 3.64948 3.56141C3.50201 3.70867 3.41906 3.90912 3.41906 4.11824C3.41906 4.32736 3.50201 4.52782 3.64948 4.67508L8.89194 9.95326L3.56379 15.2314C3.41632 15.3787 3.33337 15.5792 3.33337 15.7883C3.33337 15.9974 3.41632 16.1978 3.56379 16.3451C3.7108 16.4919 3.90981 16.5738 4.11686 16.5726C4.32011 16.5738 4.5158 16.495 4.66214 16.353L9.99808 11.0591L15.3418 16.4392C15.4888 16.586 15.6878 16.6679 15.8949 16.6667C16.0992 16.6658 16.2951 16.5841 16.4402 16.4392C16.5866 16.2909 16.6681 16.0899 16.6667 15.8808C16.6652 15.6716 16.5809 15.4718 16.4324 15.3256Z" fill="black"/>
</g>
</svg>
